<svg width="500" height="500" viewBox="0 0 500 500" fill="none" xmlns="http://www.w3.org/2000/svg">
<path d="M450 100C450 127.614 427.614 150 400 150L250 150C222.386 150 200 127.614 200 100V100C200 72.3858 222.386 50 250 50L325 50L400 50C427.614 50 450 72.3858 450 100V100Z" fill="white"/>
<path d="M150 100C150 127.614 127.614 150 100 150V150C72.3858 150 50 127.614 50 100V100C50 72.3858 72.3858 50 100 50V50V50C127.614 50 150 72.3858 150 100V100Z" fill="white"/>
<path d="M450 400C450 427.614 427.614 450 400 450L100 450C72.3858 450 50 427.614 50 400L50 250C50 222.386 72.3858 200 100 200L400 200C427.614 200 450 222.386 450 250L450 400Z" fill="white"/>
</svg>
