<svg width="500" height="500" viewBox="0 0 500 500" fill="none" xmlns="http://www.w3.org/2000/svg">
<path fill-rule="evenodd" clip-rule="evenodd" d="M200 400C200 427.614 177.614 450 150 450H100C72.3857 450 50 427.614 50 400L50 100C50 72.3858 72.3858 50 100 50L400 50C427.614 50 450 72.3858 450 100L450 400C450 427.614 427.614 450 400 450H350C322.386 450 300 427.614 300 400C300 372.386 277.614 350 250 350C222.386 350 200 372.386 200 400ZM225 250C225 277.614 202.614 300 175 300C147.386 300 125 277.614 125 250C125 222.386 147.386 200 175 200C202.614 200 225 222.386 225 250ZM325 300C352.614 300 375 277.614 375 250C375 222.386 352.614 200 325 200C297.386 200 275 222.386 275 250C275 277.614 297.386 300 325 300Z" fill="white"/>
</svg>
