<svg width="500" height="500" viewBox="0 0 500 500" fill="none" xmlns="http://www.w3.org/2000/svg">
<path fill-rule="evenodd" clip-rule="evenodd" d="M435.355 264.645C444.732 255.268 450 242.55 450 229.289V100C450 72.3858 427.614 50 400 50L270.711 50C257.45 50 244.732 55.2678 235.355 64.6446L64.6447 235.355C55.2678 244.732 50 257.45 50 270.711L50 400C50 427.614 72.3858 450 100 450H229.289C242.55 450 255.268 444.732 264.645 435.355L435.355 264.645ZM350 200C377.614 200 400 177.614 400 150C400 122.386 377.614 100 350 100C322.386 100 300 122.386 300 150C300 177.614 322.386 200 350 200Z" fill="white"/>
</svg>
