<svg width="200" height="200" viewBox="0 0 200 200" fill="none" xmlns="http://www.w3.org/2000/svg">
  <path fill-rule="evenodd" clip-rule="evenodd" d="M63.5034 157.979L74.0057 141.811C74.0057 141.811 83.4345 145.14 100.5 145.14C117.566 145.14 126.994 141.811 126.994 141.811L137.497 157.979C137.497 157.979 141.793 158.762 158.501 150.846C175.209 142.93 176.641 139.433 176.641 139.433C176.641 139.433 179.049 119.461 171.39 91.881C163.732 64.3006 159.636 56.5699 151.818 50.0349C144 43.5 121.743 41 121.743 41L116.969 50.0349C116.969 50.0349 108.495 48.6084 100.5 48.6084C92.5046 48.6084 84.0305 50.0349 84.0305 50.0349L79.2568 41C79.2568 41 56 43.5 49.1822 50.0349C42.3643 56.5699 37.2681 64.3006 29.6098 91.881C21.9514 119.461 24.3587 139.433 24.3587 139.433C24.3587 139.433 25.7908 142.93 42.4989 150.846C59.207 158.762 63.5034 157.979 63.5034 157.979ZM91.6685 106.147C91.6685 114.813 84.6155 121.839 75.9152 121.839C67.2148 121.839 60.1618 114.813 60.1618 106.147C60.1618 97.4801 67.2148 90.4544 75.9152 90.4544C84.6155 90.4544 91.6685 97.4801 91.6685 106.147ZM109.331 106.147C109.331 114.813 116.384 121.839 125.085 121.839C133.785 121.839 140.838 114.813 140.838 106.147C140.838 97.4801 133.785 90.4544 125.085 90.4544C116.384 90.4544 109.331 97.4801 109.331 106.147Z" fill="currentColor" />
</svg>