<svg width="200" height="200" viewBox="0 0 200 200" fill="none" xmlns="http://www.w3.org/2000/svg">
  <path fill-rule="evenodd" clip-rule="evenodd" d="M42.6029 112.3C52.5168 143 82.6893 143 82.6893 143H83.1721C77.8659 146.295 74.1992 152.012 73.7554 158.67L71 200H130L127.245 158.67C126.801 152.012 123.134 146.295 117.828 143H118.311C118.311 143 148.483 143 158.397 112.3C170.425 75.0525 148.483 36 148.483 36L127.793 54.5105C127.793 54.5105 111.278 52.2532 100.5 52.2532C89.7216 52.2532 73.2065 54.5105 73.2065 54.5105L52.5168 36C52.5168 36 30.575 75.0525 42.6029 112.3Z" fill="currentColor" />
  <path d="M58.5 161C78 164.482 78 161 78 161V183.5C78 183.5 58.5 181 46 174C33.5 167 20.3304 151 25 144C29.6696 137 39 157.517 58.5 161Z" fill="#D9D9D9" />
</svg>