<svg width="500" height="500" viewBox="0 0 500 500" fill="none" xmlns="http://www.w3.org/2000/svg">
<rect width="500" height="500" fill="black"/>
<path d="M450 350C450 377.614 427.614 400 400 400L200 400C172.386 400 150 377.614 150 350L150 250C150 222.386 172.386 200 200 200L300 200L400 200C427.614 200 450 222.386 450 250L450 350Z" fill="#F5D5A5"/>
<path d="M450 300C450 327.614 427.614 350 400 350L350 350C322.386 350 300 327.614 300 300L300 100C300 72.3858 322.386 50 350 50L375 50L400 50C427.614 50 450 72.3858 450 100L450 300Z" fill="#F5D5A5"/>
<path d="M200 300C200 327.614 177.614 350 150 350L100 350C72.3858 350 50 327.614 50 300L50 200C50 172.386 72.3858 150 100 150L125 150L150 150C177.614 150 200 172.386 200 200L200 300Z" fill="#F5D5A5"/>
<path d="M488 150C488 163.807 476.807 175 463 175L438 175C424.193 175 413 163.807 413 150V150C413 136.193 424.193 125 438 125L463 125C476.807 125 488 136.193 488 150V150Z" fill="#D45C5C"/>
<path d="M350 475C350 488.807 338.807 500 325 500L275 500C261.193 500 250 488.807 250 475V475C250 461.193 261.193 450 275 450L325 450C338.807 450 350 461.193 350 475V475Z" fill="#B5485B"/>
<path d="M300 475C300 488.807 288.807 500 275 500L225 500C211.193 500 200 488.807 200 475V475C200 461.193 211.193 450 225 450L275 450C288.807 450 300 461.193 300 475V475Z" fill="#D45C5C"/>
<path d="M400 400C400 427.614 377.614 450 350 450L150 450C122.386 450 100 427.614 100 400L100 300C100 272.386 122.386 250 150 250L250 250L350 250C377.614 250 400 272.386 400 300L400 400Z" fill="#F5D5A5"/>
<path d="M400 400C400 427.614 377.614 450 350 450V450C322.386 450 300 427.614 300 400L300 150C300 122.386 322.386 100 350 100V100V100C377.614 100 400 122.386 400 150L400 400Z" fill="#EDB798"/>
<path d="M150 301C150 328.614 127.614 351 100 351V351C72.3858 351 50 328.614 50 301L50 250C50 222.386 72.3858 200 100 200V200V200C127.614 200 150 222.386 150 250L150 301Z" fill="#EDB798"/>
<path d="M400 401C400 428.614 377.614 451 350 451L150 451C122.386 451 100 428.614 100 401L100 350C100 322.386 122.386 300 150 300L250 300L350 300C377.614 300 400 322.386 400 350L400 401Z" fill="#EDB798"/>
<path d="M400 125C400 138.807 388.807 150 375 150V150C361.193 150 350 138.807 350 125V125C350 111.193 361.193 100 375 100V100C388.807 100 400 111.193 400 125V125Z" fill="black"/>
<path d="M425 50C425 63.8071 413.807 75 400 75L350 75C336.193 75 325 63.8071 325 50V50C325 36.1929 336.193 25 350 25L400 25C413.807 25 425 36.1929 425 50V50Z" fill="#D45C5C"/>
</svg>
