<svg width="500" height="500" viewBox="0 0 500 500" fill="none" xmlns="http://www.w3.org/2000/svg">
<rect width="500" height="500" fill="black"/>
<path d="M50.0001 350C50.0001 377.614 72.3858 400 100 400L300 400C327.614 400 350 377.614 350 350L350 250C350 222.386 327.614 200 300 200L200 200L100 200C72.3858 200 50 222.386 50 250L50.0001 350Z" fill="#F5D5A5"/>
<path d="M50 300C50 327.614 72.3858 350 100 350L150 350C177.614 350 200 327.614 200 300L200 100C200 72.3858 177.614 50 150 50L125 50L100 50C72.3857 50 50 72.3858 50 100L50 300Z" fill="#F5D5A5"/>
<path d="M300 300C300 327.614 322.386 350 350 350L400 350C427.614 350 450 327.614 450 300L450 200C450 172.386 427.614 150 400 150L375 150L350 150C322.386 150 300 172.386 300 200L300 300Z" fill="#F5D5A5"/>
<path d="M150 475C150 488.807 161.193 500 175 500L225 500C238.807 500 250 488.807 250 475V475C250 461.193 238.807 450 225 450L175 450C161.193 450 150 461.193 150 475V475Z" fill="#B5485B"/>
<path d="M200 475C200 488.807 211.193 500 225 500L275 500C288.807 500 300 488.807 300 475V475C300 461.193 288.807 450 275 450L225 450C211.193 450 200 461.193 200 475V475Z" fill="#D45C5C"/>
<path d="M100 400C100 427.614 122.386 450 150 450L350 450C377.614 450 400 427.614 400 400L400 300C400 272.386 377.614 250 350 250L250 250L150 250C122.386 250 100 272.386 100 300L100 400Z" fill="#F5D5A5"/>
<path d="M50 350C50 377.614 72.3858 400 100 400V400C127.614 400 150 377.614 150 350L150 150C150 122.386 127.614 100 100 100V100V100C72.3857 100 50 122.386 50 150L50 350Z" fill="#EDB798"/>
<path d="M300 351C300 378.614 322.386 401 350 401V401C377.614 401 400 378.614 400 351L400 300C400 272.386 377.614 250 350 250V250V250C322.386 250 300 272.386 300 300L300 351Z" fill="#EDB798"/>
<path d="M100 401C100 428.614 122.386 451 150 451L350 451C377.614 451 400 428.614 400 401L400 350C400 322.386 377.614 300 350 300L250 300L150 300C122.386 300 100 322.386 100 350L100 401Z" fill="#EDB798"/>
<path d="M100 125C100 138.807 111.193 150 125 150V150C138.807 150 150 138.807 150 125V125C150 111.193 138.807 100 125 100V100C111.193 100 100 111.193 100 125V125Z" fill="black"/>
<path d="M12 150C12 163.807 23.1929 175 37 175L62 175C75.8071 175 87 163.807 87 150V150C87 136.193 75.8071 125 62 125L37 125C23.1929 125 12 136.193 12 150V150Z" fill="#D45C5C"/>
<path d="M75 50C75 63.8071 86.1929 75 100 75L150 75C163.807 75 175 63.8071 175 50V50C175 36.1929 163.807 25 150 25L100 25C86.1929 25 75 36.1929 75 50V50Z" fill="#D45C5C"/>
</svg>
